<?xml version="1.0" encoding="UTF-8" standalone="no"?>
<!DOCTYPE svg PUBLIC "-//W3C//DTD SVG 1.1//EN"
 "http://www.w3.org/Graphics/SVG/1.1/DTD/svg11.dtd">
<!-- Generated by graphviz version 9.0.0 (0)
 -->
<!-- Title: aoc Pages: 1 -->
<svg width="604pt" height="664pt"
 viewBox="0.00 0.00 603.75 663.50" xmlns="http://www.w3.org/2000/svg" xmlns:xlink="http://www.w3.org/1999/xlink">
<g id="graph0" class="graph" transform="scale(1 1) rotate(0) translate(4 659.5)">
<title>aoc</title>
<polygon fill="white" stroke="none" points="-4,4 -4,-659.5 599.75,-659.5 599.75,4 -4,4"/>
<!-- Faerun -->
<g id="node1" class="node">
<title>Faerun</title>
<ellipse fill="none" stroke="black" cx="280" cy="-637.5" rx="36.51" ry="18"/>
<text text-anchor="middle" x="280" y="-632.45" font-family="Times,serif" font-size="14.00">Faerun</text>
</g>
<!-- Tristram -->
<g id="node2" class="node">
<title>Tristram</title>
<ellipse fill="none" stroke="black" cx="382" cy="-549" rx="43.16" ry="18"/>
<text text-anchor="middle" x="382" y="-543.95" font-family="Times,serif" font-size="14.00">Tristram</text>
</g>
<!-- Faerun&#45;&#45;Tristram -->
<g id="edge1" class="edge">
<title>Faerun&#45;&#45;Tristram</title>
<path fill="none" stroke="black" d="M297.77,-621.43C316.26,-605.75 345.08,-581.31 363.75,-565.48"/>
<text text-anchor="middle" x="346.75" y="-588.2" font-family="Times,serif" font-size="14.00">65</text>
</g>
<!-- Tambi -->
<g id="node3" class="node">
<title>Tambi</title>
<ellipse fill="none" stroke="black" cx="280" cy="-460.5" rx="34.97" ry="18"/>
<text text-anchor="middle" x="280" y="-455.45" font-family="Times,serif" font-size="14.00">Tambi</text>
</g>
<!-- Faerun&#45;&#45;Tambi -->
<g id="edge2" class="edge">
<title>Faerun&#45;&#45;Tambi</title>
<path fill="none" stroke="black" d="M280,-619.08C280,-585.54 280,-512.34 280,-478.85"/>
<text text-anchor="middle" x="290.12" y="-543.95" font-family="Times,serif" font-size="14.00">129</text>
</g>
<!-- Norrath -->
<g id="node4" class="node">
<title>Norrath</title>
<ellipse fill="none" stroke="black" cx="141" cy="-372" rx="39.58" ry="18"/>
<text text-anchor="middle" x="141" y="-366.95" font-family="Times,serif" font-size="14.00">Norrath</text>
</g>
<!-- Faerun&#45;&#45;Norrath -->
<g id="edge3" class="edge">
<title>Faerun&#45;&#45;Norrath</title>
<path fill="none" stroke="black" d="M246.86,-629.72C229.79,-624.63 209.91,-615.97 197,-601.5 141.79,-539.65 138.92,-432.21 140.11,-390.37"/>
<text text-anchor="middle" x="163.12" y="-499.7" font-family="Times,serif" font-size="14.00">144</text>
</g>
<!-- Snowdin -->
<g id="node5" class="node">
<title>Snowdin</title>
<ellipse fill="none" stroke="black" cx="407" cy="-283.5" rx="43.67" ry="18"/>
<text text-anchor="middle" x="407" y="-278.45" font-family="Times,serif" font-size="14.00">Snowdin</text>
</g>
<!-- Faerun&#45;&#45;Snowdin -->
<g id="edge4" class="edge">
<title>Faerun&#45;&#45;Snowdin</title>
<path fill="none" stroke="black" d="M314.13,-630.83C369.1,-619.6 475.2,-588.72 516,-513 530.86,-485.42 525.32,-472.42 516,-442.5 497.67,-383.64 448.91,-327.34 423.27,-300.64"/>
<text text-anchor="middle" x="531.75" y="-455.45" font-family="Times,serif" font-size="14.00">71</text>
</g>
<!-- Straylight -->
<g id="node6" class="node">
<title>Straylight</title>
<ellipse fill="none" stroke="black" cx="248" cy="-195" rx="47.26" ry="18"/>
<text text-anchor="middle" x="248" y="-189.95" font-family="Times,serif" font-size="14.00">Straylight</text>
</g>
<!-- Faerun&#45;&#45;Straylight -->
<g id="edge5" class="edge">
<title>Faerun&#45;&#45;Straylight</title>
<path fill="none" stroke="black" d="M273.54,-619.29C263.15,-590.6 243.17,-530.97 236,-478.5 233.77,-462.2 232.32,-556.29 239,-265.5 239.35,-250.16 238.06,-246.22 240,-231 240.74,-225.19 242.02,-218.93 243.33,-213.33"/>
<text text-anchor="middle" x="246.12" y="-411.2" font-family="Times,serif" font-size="14.00">137</text>
</g>
<!-- AlphaCentauri -->
<g id="node7" class="node">
<title>AlphaCentauri</title>
<ellipse fill="none" stroke="black" cx="336" cy="-106.5" rx="65.17" ry="18"/>
<text text-anchor="middle" x="336" y="-101.45" font-family="Times,serif" font-size="14.00">AlphaCentauri</text>
</g>
<!-- Faerun&#45;&#45;AlphaCentauri -->
<g id="edge6" class="edge">
<title>Faerun&#45;&#45;AlphaCentauri</title>
<path fill="none" stroke="black" d="M316.17,-634.06C397.94,-627.56 590,-606.29 590,-550 590,-550 590,-550 590,-415.25 590,-282.81 577.07,-220.45 470,-142.5 448.72,-127 421.12,-118.36 396.51,-113.54"/>
<text text-anchor="middle" x="592.38" y="-366.95" font-family="Times,serif" font-size="14.00">3</text>
</g>
<!-- Arbre -->
<g id="node8" class="node">
<title>Arbre</title>
<ellipse fill="none" stroke="black" cx="130" cy="-18" rx="32.41" ry="18"/>
<text text-anchor="middle" x="130" y="-12.95" font-family="Times,serif" font-size="14.00">Arbre</text>
</g>
<!-- Faerun&#45;&#45;Arbre -->
<g id="edge7" class="edge">
<title>Faerun&#45;&#45;Arbre</title>
<path fill="none" stroke="black" d="M244.25,-633.04C168.77,-624.75 0,-600.56 0,-550 0,-550 0,-550 0,-105.5 0,-57.79 61.45,-34.8 99.85,-25.08"/>
<text text-anchor="middle" x="10.12" y="-322.7" font-family="Times,serif" font-size="14.00">149</text>
</g>
<!-- Tristram&#45;&#45;Tambi -->
<g id="edge8" class="edge">
<title>Tristram&#45;&#45;Tambi</title>
<path fill="none" stroke="black" d="M363.76,-532.54C344.97,-516.6 315.88,-491.93 297.4,-476.25"/>
<text text-anchor="middle" x="346.75" y="-499.7" font-family="Times,serif" font-size="14.00">63</text>
</g>
<!-- Tristram&#45;&#45;Norrath -->
<g id="edge9" class="edge">
<title>Tristram&#45;&#45;Norrath</title>
<path fill="none" stroke="black" d="M345.67,-538.88C294.69,-524.07 203.03,-489.64 157,-424.5 149.87,-414.41 145.84,-401.03 143.61,-390.44"/>
<text text-anchor="middle" x="215.38" y="-455.45" font-family="Times,serif" font-size="14.00">4</text>
</g>
<!-- Tristram&#45;&#45;Snowdin -->
<g id="edge10" class="edge">
<title>Tristram&#45;&#45;Snowdin</title>
<path fill="none" stroke="black" d="M390.03,-530.89C392.33,-525.3 394.59,-518.99 396,-513 414.13,-435.87 410.68,-340.18 408.28,-301.71"/>
<text text-anchor="middle" x="419.12" y="-411.2" font-family="Times,serif" font-size="14.00">105</text>
</g>
<!-- Tristram&#45;&#45;Straylight -->
<g id="edge11" class="edge">
<title>Tristram&#45;&#45;Straylight</title>
<path fill="none" stroke="black" d="M383.38,-530.77C385.49,-495.79 386.79,-414.61 360,-354 347.46,-325.63 332.51,-326.4 314,-301.5 291.83,-271.68 269.66,-234.3 257.49,-212.99"/>
<text text-anchor="middle" x="382.12" y="-366.95" font-family="Times,serif" font-size="14.00">125</text>
</g>
<!-- Tristram&#45;&#45;AlphaCentauri -->
<g id="edge12" class="edge">
<title>Tristram&#45;&#45;AlphaCentauri</title>
<path fill="none" stroke="black" d="M397.82,-532C402.65,-526.37 407.58,-519.76 411,-513 429.28,-476.82 423.77,-463.96 433,-424.5 461.61,-302.24 528.66,-240.37 450,-142.5 437.16,-126.52 417.2,-117.67 397.55,-112.82"/>
<text text-anchor="middle" x="473.75" y="-322.7" font-family="Times,serif" font-size="14.00">55</text>
</g>
<!-- Tristram&#45;&#45;Arbre -->
<g id="edge13" class="edge">
<title>Tristram&#45;&#45;Arbre</title>
<path fill="none" stroke="black" d="M405.86,-533.9C413.8,-528.24 422.11,-521.12 428,-513 437.53,-499.86 434.89,-493.91 440,-478.5 482.81,-349.44 539.57,-304.39 492,-177 465.93,-107.17 447.9,-79.86 378,-54 304.39,-26.77 211.29,-20.54 162.78,-19.23"/>
<text text-anchor="middle" x="516.75" y="-278.45" font-family="Times,serif" font-size="14.00">14</text>
</g>
<!-- Tambi&#45;&#45;Norrath -->
<g id="edge14" class="edge">
<title>Tambi&#45;&#45;Norrath</title>
<path fill="none" stroke="black" d="M246.76,-454.15C224.8,-449.31 196.34,-440.4 175.5,-424.5 163.69,-415.49 154.59,-401.23 148.71,-390"/>
<text text-anchor="middle" x="182.75" y="-411.2" font-family="Times,serif" font-size="14.00">68</text>
</g>
<!-- Tambi&#45;&#45;Snowdin -->
<g id="edge15" class="edge">
<title>Tambi&#45;&#45;Snowdin</title>
<path fill="none" stroke="black" d="M289.39,-442.9C301.64,-421.67 324.15,-384.06 346.5,-354 360.72,-334.87 378.88,-314.47 391.58,-300.75"/>
<text text-anchor="middle" x="352.75" y="-366.95" font-family="Times,serif" font-size="14.00">52</text>
</g>
<!-- Tambi&#45;&#45;Straylight -->
<g id="edge16" class="edge">
<title>Tambi&#45;&#45;Straylight</title>
<path fill="none" stroke="black" d="M273.7,-442.63C265.29,-419.13 250.85,-375.04 245.5,-336 239.49,-292.17 243.29,-239.9 245.99,-213.34"/>
<text text-anchor="middle" x="252.75" y="-322.7" font-family="Times,serif" font-size="14.00">65</text>
</g>
<!-- Tambi&#45;&#45;AlphaCentauri -->
<g id="edge17" class="edge">
<title>Tambi&#45;&#45;AlphaCentauri</title>
<path fill="none" stroke="black" d="M284.75,-442.35C294.46,-406.5 316.58,-320.84 327,-247.5 333.24,-203.61 335.15,-151.37 335.74,-124.83"/>
<text text-anchor="middle" x="330.75" y="-278.45" font-family="Times,serif" font-size="14.00">22</text>
</g>
<!-- Tambi&#45;&#45;Arbre -->
<g id="edge18" class="edge">
<title>Tambi&#45;&#45;Arbre</title>
<path fill="none" stroke="black" d="M250.45,-450.54C241.64,-447.91 231.94,-445.05 223,-442.5 138.54,-418.39 38,-460.83 38,-373 38,-373 38,-373 38,-105.5 38,-68.67 77.62,-42.93 104.86,-29.58"/>
<text text-anchor="middle" x="48.12" y="-234.2" font-family="Times,serif" font-size="14.00">143</text>
</g>
<!-- Norrath&#45;&#45;Snowdin -->
<g id="edge19" class="edge">
<title>Norrath&#45;&#45;Snowdin</title>
<path fill="none" stroke="black" d="M174.57,-361.99C199.18,-355.24 233.32,-345.55 263,-336 302.05,-323.43 346.41,-307.28 375.45,-296.44"/>
<text text-anchor="middle" x="314.38" y="-322.7" font-family="Times,serif" font-size="14.00">8</text>
</g>
<!-- Norrath&#45;&#45;Straylight -->
<g id="edge20" class="edge">
<title>Norrath&#45;&#45;Straylight</title>
<path fill="none" stroke="black" d="M144.27,-353.82C150.34,-325.62 165.6,-268.88 196,-231 202.68,-222.68 211.86,-215.6 220.66,-210.04"/>
<text text-anchor="middle" x="181.75" y="-278.45" font-family="Times,serif" font-size="14.00">23</text>
</g>
<!-- Norrath&#45;&#45;AlphaCentauri -->
<g id="edge21" class="edge">
<title>Norrath&#45;&#45;AlphaCentauri</title>
<path fill="none" stroke="black" d="M139.96,-353.78C138.69,-315.83 141.4,-224.61 192,-177 220.81,-149.89 262.17,-131.43 293.17,-120.39"/>
<text text-anchor="middle" x="168.12" y="-234.2" font-family="Times,serif" font-size="14.00">136</text>
</g>
<!-- Norrath&#45;&#45;Arbre -->
<g id="edge22" class="edge">
<title>Norrath&#45;&#45;Arbre</title>
<path fill="none" stroke="black" d="M122.96,-355.77C106.27,-339.87 84,-313.28 84,-284.5 84,-284.5 84,-284.5 84,-105.5 84,-78.12 102.19,-50.96 115.7,-34.58"/>
<text text-anchor="middle" x="94.12" y="-189.95" font-family="Times,serif" font-size="14.00">115</text>
</g>
<!-- Snowdin&#45;&#45;Straylight -->
<g id="edge23" class="edge">
<title>Snowdin&#45;&#45;Straylight</title>
<path fill="none" stroke="black" d="M381.45,-268.6C352.05,-252.6 303.99,-226.46 274.28,-210.3"/>
<text text-anchor="middle" x="351.12" y="-234.2" font-family="Times,serif" font-size="14.00">101</text>
</g>
<!-- Snowdin&#45;&#45;AlphaCentauri -->
<g id="edge24" class="edge">
<title>Snowdin&#45;&#45;AlphaCentauri</title>
<path fill="none" stroke="black" d="M401.51,-265.38C392.77,-238.68 374.63,-185.7 355,-142.5 352.31,-136.58 349.04,-130.29 345.97,-124.7"/>
<text text-anchor="middle" x="388.75" y="-189.95" font-family="Times,serif" font-size="14.00">84</text>
</g>
<!-- Snowdin&#45;&#45;Arbre -->
<g id="edge25" class="edge">
<title>Snowdin&#45;&#45;Arbre</title>
<path fill="none" stroke="black" d="M413.72,-265.23C426.82,-228.36 451.09,-141.04 410,-88.5 379.45,-49.44 228.66,-29.23 161.9,-22.07"/>
<text text-anchor="middle" x="438.75" y="-145.7" font-family="Times,serif" font-size="14.00">96</text>
</g>
<!-- Straylight&#45;&#45;AlphaCentauri -->
<g id="edge26" class="edge">
<title>Straylight&#45;&#45;AlphaCentauri</title>
<path fill="none" stroke="black" d="M264.55,-177.73C280.09,-162.46 303.22,-139.72 318.92,-124.29"/>
<text text-anchor="middle" x="310.12" y="-145.7" font-family="Times,serif" font-size="14.00">107</text>
</g>
<!-- Straylight&#45;&#45;Arbre -->
<g id="edge27" class="edge">
<title>Straylight&#45;&#45;Arbre</title>
<path fill="none" stroke="black" d="M236.69,-177.22C213.96,-143.51 163.03,-67.99 140.77,-34.97"/>
<text text-anchor="middle" x="207.75" y="-101.45" font-family="Times,serif" font-size="14.00">14</text>
</g>
<!-- AlphaCentauri&#45;&#45;Arbre -->
<g id="edge28" class="edge">
<title>AlphaCentauri&#45;&#45;Arbre</title>
<path fill="none" stroke="black" d="M301.52,-91.02C260.29,-73.71 192.24,-45.14 155.47,-29.7"/>
<text text-anchor="middle" x="258.75" y="-57.2" font-family="Times,serif" font-size="14.00">46</text>
</g>
</g>
</svg>
